# Blender v2.79 (sub 0) OBJ File: 'Fox_scene.blend.blend'
# www.blender.org
mtllib mountain.mtl
o Plane.001
v -31.448874 7.415131 -21.897472
v -28.638123 10.102697 -17.649254
v -25.836065 4.296366 -13.414177
v -24.384041 0.295084 -10.733673
v -27.200655 1.670777 -24.708225
v -22.965578 0.963136 -27.510281
v -19.246616 -1.086490 -29.705425
v -34.259628 2.149194 -26.145693
v -37.061684 1.145396 -30.380770
v -38.973679 -1.963958 -34.367344
v -35.697094 11.972590 -19.086721
v -39.932171 7.294443 -16.284664
v -43.375271 -0.442535 -14.818787
v -33.525101 16.929462 -15.257713
v -29.931824 8.097082 -10.894459
v -27.404934 -3.258944 -3.739548
v -37.147980 10.207141 -12.363853
v -34.145760 5.258210 -8.621731
v -31.719324 -3.669546 -1.564323
v -43.069893 -2.377920 -10.387094
v -38.154644 -1.974366 -6.858723
v -35.442661 -5.303244 -2.056259
v -24.806931 1.860559 -20.927683
v -20.445736 -2.188720 -23.414551
v -15.496547 -5.064205 -25.374918
v -21.915325 -1.269465 -16.198420
v -18.193222 -3.052364 -19.198132
v -15.587070 -4.363205 -21.916691
v -19.528805 -4.617056 -11.679431
v -17.039747 -3.494705 -15.886757
v -13.252945 -5.219656 -18.888327
v -30.032961 7.813226 -28.850601
v -32.984917 9.488965 -33.027966
v -35.192329 0.924639 -38.260353
v -25.749821 8.685916 -31.431023
v -28.731375 14.767306 -35.521320
v -30.873375 8.949804 -37.260063
v -20.523720 1.841401 -36.600304
v -24.568216 7.173306 -37.204288
v -26.954468 2.741995 -40.607254
v -38.402000 2.673056 -23.313385
v -42.451889 0.593085 -20.380423
v -47.843262 -4.453591 -17.653574
v -41.090866 -1.754341 -27.663099
v -45.021595 -2.135886 -24.715244
v -45.635124 -3.537492 -22.828695
v -44.619576 -4.481890 -32.937561
v -44.225670 -4.357339 -28.454227
v -49.164894 -6.043949 -25.423157
v -52.420231 -5.723598 -22.686136
v -51.828667 -4.827214 -18.130634
v -50.078087 -4.677052 -14.272192
v -46.241844 -5.763230 -12.212985
v -45.241531 -7.593341 -8.034502
v -39.904255 -7.751307 -5.904636
v -38.310829 -7.841056 -1.087868
v -32.629105 -8.571301 2.777981
v -28.904274 -8.738496 5.914707
v -26.595732 -7.879900 -1.084160
v -22.247051 -7.230606 -7.323153
v -17.665724 -7.004546 -6.322547
v -14.319256 -6.991526 -11.658535
v -10.550385 -7.242140 -13.365772
v -11.472206 -8.304631 -22.396835
v -10.758865 -7.988092 -25.019356
v -14.139700 -7.605947 -28.828154
v -13.940262 -7.132255 -32.406567
v -17.513546 -6.462858 -36.738052
v -20.363911 -6.155795 -41.248997
v -25.562424 -4.223542 -43.064896
v -30.830200 -1.984015 -42.087204
v -33.735046 -1.637083 -40.380486
v -37.805954 -5.883609 -40.154324
v -40.306168 -6.776067 -35.722477
v -46.418678 -6.088994 -35.528160
v -47.160255 -6.508697 -30.587158
v -50.079720 -7.064250 -28.578354
v -35.981976 -8.320827 0.926540
v -10.685877 -8.323745 -16.942120
v -52.347481 -7.066812 -26.020462
v -29.165852 -5.330402 -44.280128
vt 0.893005 0.418654
vt 0.887496 0.548569
vt 0.803898 0.549486
vt 0.787525 0.448303
vt 0.680348 0.543781
vt 0.634059 0.430031
vt 0.189782 0.593909
vt 0.187145 0.620327
vt 0.119051 0.599498
vt 0.167277 0.578882
vt 0.085215 0.588758
vt 0.120049 0.549519
vt 0.893005 0.682139
vt 0.790370 0.645871
vt 0.655387 0.649941
vt 0.172339 0.638464
vt 0.106416 0.628932
vt 0.043516 0.615099
vt 0.209386 0.659424
vt 0.194436 0.699886
vt 0.165321 0.702231
vt 0.197194 0.643637
vt 0.144183 0.672002
vt 0.104024 0.657481
vt 0.062625 0.640974
vt 0.169267 0.733507
vt 0.138680 0.730469
vt 0.116450 0.699676
vt 0.088391 0.679963
vt 0.075058 0.663683
vt 0.238375 0.621782
vt 0.212096 0.616528
vt 0.228039 0.573790
vt 0.249352 0.583029
vt 0.239781 0.537095
vt 0.264313 0.560167
vt 0.252882 0.499261
vt 0.280070 0.536747
vt 0.278764 0.480957
vt 0.303560 0.485235
vt 0.195118 0.552582
vt 0.211766 0.523725
vt 0.228647 0.502716
vt 0.249550 0.460270
vt 0.157706 0.533973
vt 0.188903 0.517850
vt 0.206346 0.487676
vt 0.230622 0.462937
vt 0.117462 0.517150
vt 0.154522 0.493272
vt 0.166660 0.466789
vt 0.192035 0.460270
vt 0.276313 0.611255
vt 0.267127 0.648510
vt 0.297574 0.618164
vt 0.291694 0.662865
vt 0.337955 0.640646
vt 0.324234 0.678589
vt 0.374230 0.673892
vt 0.352041 0.702235
vt 0.290110 0.593596
vt 0.784422 0.780402
vt 0.688093 0.793431
vt 0.689053 0.702660
vt 0.772109 0.678062
vt 0.682038 0.626055
vt 0.784421 0.453873
vt 0.310369 0.609291
vt 0.360679 0.635827
vt 0.315428 0.559604
vt 0.480056 0.802276
vt 0.588976 0.715429
vt 0.523487 0.615276
vt 0.336128 0.593302
vt 0.367157 0.613187
vt 0.334343 0.510142
vt 0.364562 0.532975
vt 0.311377 0.589014
vt 0.374058 0.571690
vt 0.392039 0.594048
vt 0.249904 0.668459
vt 0.216718 0.638747
vt 0.230302 0.694637
vt 0.208238 0.742513
vt 0.185235 0.758621
vt 0.279803 0.696010
vt 0.257585 0.718948
vt 0.245016 0.728505
vt 0.211068 0.770264
vt 0.318216 0.724110
vt 0.286523 0.722508
vt 0.264170 0.756931
vt 0.242678 0.776993
vt 0.335851 0.742231
vt 0.301138 0.747069
vt 0.285965 0.766321
vt 0.267082 0.780175
vn 0.3081 0.5887 -0.7473
vn 0.7920 0.5270 0.3082
vn 0.6969 0.5060 0.5082
vn 0.7160 0.4431 0.5395
vn -0.8306 0.5559 -0.0333
vn -0.0319 0.4953 0.8681
vn 0.1825 0.5937 0.7837
vn 0.5299 0.6996 0.4794
vn -0.8577 0.4402 0.2657
vn -0.4897 0.3923 0.7786
vn -0.4634 0.5082 0.7260
vn -0.4345 0.6411 0.6327
vn -0.7703 0.5330 0.3499
vn -0.4501 0.4006 0.7981
vn -0.7055 0.5064 0.4958
vn -0.3442 0.6904 0.6363
vn 0.5712 0.5820 -0.5788
vn 0.4932 0.8697 0.0194
vn 0.5652 0.7875 0.2457
vn 0.7877 0.6161 -0.0069
vn 0.8625 0.5041 -0.0453
vn 0.5931 0.8049 0.0183
vn 0.4326 0.8957 -0.1029
vn 0.5202 0.8099 -0.2711
vn 0.7848 0.5914 0.1852
vn 0.3882 0.8861 0.2534
vn 0.4033 0.9144 -0.0345
vn 0.6881 0.7241 -0.0471
vn 0.3421 0.6962 0.6311
vn 0.3889 0.8563 0.3397
vn 0.3992 0.8752 0.2734
vn 0.8060 0.5727 -0.1496
vn 0.0537 0.9962 0.0680
vn -0.6530 0.5753 0.4926
vn -0.8546 0.4722 -0.2160
vn -0.8105 0.3959 -0.4317
vn 0.4280 0.5776 0.6951
vn -0.0797 0.6978 0.7119
vn -0.7751 0.4496 -0.4440
vn -0.4820 0.3794 -0.7897
vn 0.7807 0.5662 0.2644
vn 0.8450 0.5338 0.0331
vn 0.1212 0.4018 -0.9077
vn -0.2793 0.3869 -0.8788
vn 0.8320 0.5203 -0.1927
vn 0.7268 0.3560 -0.5874
vn 0.4354 0.3813 -0.8155
vn 0.0064 0.4127 -0.9109
vn -0.2105 0.5500 -0.8082
vn -0.7296 0.4876 -0.4794
vn -0.8272 0.5609 -0.0329
vn -0.4831 0.8082 0.3368
vn -0.4324 0.8609 -0.2681
vn -0.5013 0.7918 -0.3489
vn -0.7611 0.6419 -0.0934
vn -0.1024 0.9916 0.0789
vn -0.5419 0.8171 -0.1967
vn -0.5806 0.7750 -0.2495
vn -0.6372 0.7236 -0.2651
vn -0.3009 0.9167 -0.2629
vn -0.1995 0.5819 -0.7884
vn -0.6228 0.7824 0.0015
vn -0.4037 0.8839 -0.2363
vn -0.2391 0.9219 -0.3047
usemtl Material.004
s off
f 1/1/1 11/2/1 14/3/1 2/4/1
f 2/4/2 14/3/2 15/5/2 3/6/2
f 3/7/3 15/8/3 16/9/3 4/10/3
f 4/10/4 16/9/4 59/11/4 60/12/4
f 11/2/5 12/13/5 17/14/5 14/3/5
f 14/3/6 17/14/6 18/15/6 15/5/6
f 15/8/7 18/16/7 19/17/7 16/9/7
f 16/9/8 19/17/8 58/18/8 59/11/8
f 12/19/9 13/20/9 20/21/9 17/22/9
f 17/22/10 20/21/10 21/23/10 18/16/10
f 18/16/11 21/23/11 22/24/11 19/17/11
f 19/17/12 22/24/12 57/25/12 58/18/12
f 13/20/13 53/26/13 54/27/13 20/21/13
f 20/21/14 54/27/14 55/28/14 21/23/14
f 21/23/15 55/28/15 56/29/15 22/24/15
f 22/24/16 56/29/16 78/30/16 57/25/16
f 1/31/17 2/32/17 23/33/17 5/34/17
f 5/34/18 23/33/18 24/35/18 6/36/18
f 6/36/19 24/35/19 25/37/19 7/38/19
f 7/38/20 25/37/20 66/39/20 67/40/20
f 2/32/21 3/7/21 26/41/21 23/33/21
f 23/33/22 26/41/22 27/42/22 24/35/22
f 24/35/23 27/42/23 28/43/23 25/37/23
f 25/37/24 28/43/24 65/44/24 66/39/24
f 3/7/25 4/10/25 29/45/25 26/41/25
f 26/41/26 29/45/26 30/46/26 27/42/26
f 27/42/27 30/46/27 31/47/27 28/43/27
f 28/43/28 31/47/28 64/48/28 65/44/28
f 4/10/29 60/12/29 61/49/29 29/45/29
f 29/45/30 61/49/30 62/50/30 30/46/30
f 30/46/31 62/50/31 63/51/31 31/47/31
f 31/47/32 63/51/32 79/52/32 64/48/32
f 1/31/33 5/34/33 32/53/33 8/54/33
f 8/54/34 32/53/34 33/55/34 9/56/34
f 9/56/35 33/55/35 34/57/35 10/58/35
f 10/58/36 34/57/36 73/59/36 74/60/36
f 5/34/37 6/36/37 35/61/37 32/53/37
f 32/62/38 35/63/38 36/64/38 33/65/38
f 33/65/39 36/64/39 37/66/39 34/67/39
f 34/57/40 37/68/40 72/69/40 73/59/40
f 6/36/41 7/38/41 38/70/41 35/61/41
f 35/63/42 38/71/42 39/72/42 36/64/42
f 36/64/43 39/72/43 40/73/43 37/66/43
f 37/68/44 40/74/44 71/75/44 72/69/44
f 7/38/45 67/40/45 68/76/45 38/70/45
f 38/70/46 68/76/46 69/77/46 39/78/46
f 39/78/47 69/77/47 70/79/47 40/74/47
f 40/74/48 70/79/48 81/80/48 71/75/48
f 1/31/49 8/54/49 41/81/49 11/82/49
f 11/82/50 41/81/50 42/83/50 12/19/50
f 12/19/51 42/83/51 43/84/51 13/20/51
f 13/20/52 43/84/52 52/85/52 53/26/52
f 8/54/53 9/56/53 44/86/53 41/81/53
f 41/81/54 44/86/54 45/87/54 42/83/54
f 42/83/55 45/87/55 46/88/55 43/84/55
f 43/84/56 46/88/56 51/89/56 52/85/56
f 9/56/57 10/58/57 47/90/57 44/86/57
f 44/86/58 47/90/58 48/91/58 45/87/58
f 45/87/59 48/91/59 49/92/59 46/88/59
f 46/88/60 49/92/60 50/93/60 51/89/60
f 10/58/61 74/60/61 75/94/61 47/90/61
f 47/90/62 75/94/62 76/95/62 48/91/62
f 48/91/63 76/95/63 77/96/63 49/92/63
f 49/92/64 77/96/64 80/97/64 50/93/64
